# xmcd
#
# Track frame offsets: 
#        150
#        16164
#        35753
#        58733
#        73147
#        91175
#        112612
#        135262
#        154327
#        171937
#        187294
#        206847
#        222898
#
# Disc length: 3304 seconds
#
# Revision: 0
# Processed by: cddbd v1.5.2PL0 Copyright (c) Steve Scherf et al.
# Submitted via: ExactAudioCopy v1.2
#
DISCID=b90ce60d
DTITLE=Doctor B - 13 Shades of Groove
DYEAR=2019
DGENRE=Blues
TTITLE0=This Time
TTITLE1=Play Something Sweet - Brickyard Blues
TTITLE2=Freedom in the Groove
TTITLE3=It's Raining
TTITLE4=Gimme Ice
TTITLE5=Let the Good Times Roll
TTITLE6=Pass the Hat
TTITLE7=You Got the Stuff
TTITLE8=Honky Tonk Women
TTITLE9=You Better Leave (feat. Co Gfeller)
TTITLE10=I Don't Need No Doctor
TTITLE11=Sugar
TTITLE12=Come Together
EXTD=
EXTT0=
EXTT1=
EXTT2=
EXTT3=
EXTT4=
EXTT5=
EXTT6=
EXTT7=
EXTT8=
EXTT9=
EXTT10=
EXTT11=
EXTT12=
PLAYORDER=
